<svg width="27" height="28" viewBox="0 0 27 28" fill="none" xmlns="http://www.w3.org/2000/svg">
<path d="M15.1502 1.40432C17.19 2.39308 18.4082 4.92312 17.8699 7.1042C17.7283 7.7149 17.6433 8.20928 17.6999 8.20928C17.7566 8.20928 18.2099 7.94755 18.7198 7.62765C19.8814 6.90063 22.0345 6.87155 23.3943 7.51133C25.7458 8.67457 26.794 12.1352 25.4908 14.5198C24.6692 15.9739 23.2244 16.9626 21.6662 17.1371L20.3913 17.2825L21.2412 18.0096C22.4311 19.0565 22.9127 20.1616 22.9127 21.9646C22.9127 23.7676 22.2045 25.1053 20.6746 26.1522C18.1532 27.8971 14.7536 26.9083 13.422 24.0293L12.9404 22.9824L12.4305 24.1456C11.4956 26.2976 8.77585 27.5481 6.65107 26.8211C4.38464 26.065 3.08144 24.262 3.08144 21.8773C3.08144 20.2779 3.33641 19.609 4.4413 18.2422L5.14956 17.3698L4.04467 17.1371C1.35328 16.5846 -0.204888 14.4035 0.0217548 11.5827C0.276728 8.55825 2.31652 6.87155 5.46119 7.1042C6.39609 7.19144 7.41599 7.36593 7.72762 7.48225C8.18091 7.68582 8.20924 7.62766 8.06759 6.81339C7.64263 4.89404 8.9175 2.364 10.7873 1.4334C11.9772 0.822707 13.932 0.822707 15.1502 1.40432Z" fill="black"/>
</svg>
