<svg width="1847" height="967" viewBox="0 0 1847 967" fill="none" xmlns="http://www.w3.org/2000/svg">
<path d="M1847 406.691V413.212C1788.1 346.422 1728.95 293.666 1668.34 257.451C1399.74 96.9749 1101.37 261.609 665.165 967H660.056C1098.72 257.004 1399.31 91.6411 1670.57 253.711C1730.46 289.489 1788.87 341.293 1847 406.691ZM1847 393.622V400.125C1790.75 337.498 1734.26 287.382 1676.44 251.978C1402.41 84.1776 1097.77 246.667 646.824 967H641.698C1095.15 242.019 1402.01 78.8216 1678.71 248.254C1735.78 283.203 1791.53 332.343 1847 393.622ZM1847 380.648V387.041C1793.58 328.652 1739.92 281.317 1685.07 246.882C1405.41 71.2732 1094.32 231.182 627.778 967H622.637C1091.73 226.481 1405.04 65.9098 1687.38 243.193C1741.46 277.152 1794.37 323.563 1847 380.648ZM1847 367.652V374.039C1796.6 319.974 1745.96 275.519 1694.29 242.233C1408.77 58.2941 1091.07 215.162 608.022 967H602.836C1088.5 210.373 1408.44 52.8949 1696.64 238.561C1747.53 271.346 1797.4 314.849 1847 367.653V367.652ZM1847 354.773V361.071C1799.83 311.424 1752.43 269.996 1704.16 238.07C1415.91 47.4418 1095.57 194.875 604.789 940.476C598.767 949.622 592.851 958.114 586.873 967H581.627C588.142 957.34 594.597 948.055 601.16 938.085C1093.73 189.759 1415.95 42.2506 1706.54 234.432C1754.03 265.835 1800.64 306.348 1847 354.773ZM1847 341.91V348.128C1803.3 303.015 1759.39 264.799 1714.75 234.474C1424.22 37.124 1101.91 173.67 604.772 908.981C591.246 928.987 577.836 948.261 564.514 967H559.224C573.098 947.535 587.082 927.38 601.176 906.537C1100.15 168.52 1424.33 31.9364 1717.19 230.87C1761.02 260.646 1804.13 297.977 1847 341.909V341.91ZM1847 329.072V335.24C1807.04 294.79 1766.89 259.978 1726.15 231.535C1433.14 26.9624 1108.77 152.164 604.764 877.486C582.786 909.113 561.163 938.602 539.727 967H534.257C556.306 937.88 578.561 907.551 601.186 874.992C1107.08 146.965 1433.31 21.7615 1728.64 227.948C1768.55 255.813 1807.88 289.759 1847 329.072ZM1847 316.292V322.411C1811.09 286.772 1775.01 255.569 1738.48 229.336C1442.72 16.9773 1116.21 130.307 604.745 845.991C573.595 889.58 543.041 929.667 512.978 967H507.306C538.052 928.962 569.307 888.075 601.2 843.446C1114.58 125.072 1442.97 11.782 1741.01 225.782C1776.7 251.405 1811.94 281.748 1847 316.292V316.292ZM1847 303.568V309.611C1815.49 278.96 1783.84 251.641 1751.85 228.006C1453.06 7.21789 1124.29 108.053 604.73 814.488C563.341 870.761 522.951 921.36 483.493 967.001H477.764C517.914 920.762 559.057 869.234 601.218 811.908C1122.75 102.797 1453.38 2.03477 1754.42 224.486C1785.55 247.485 1816.34 273.965 1847 303.567V303.568ZM1847 290.886V296.876C1820.28 271.416 1793.42 248.352 1766.41 227.684C1464.25 -2.26299 1133.12 85.3569 604.703 782.992C551.708 852.958 500.375 913.791 450.553 967H444.576C495.17 913.255 547.352 851.513 601.245 780.362C1131.67 80.0751 1464.66 -7.42102 1769.03 224.216C1795.2 244.133 1821.19 266.355 1847 290.885V290.886ZM1847 278.221V284.174C1825.54 264.147 1803.99 245.614 1782.35 228.574C1476.42 -11.3764 1142.83 62.1521 604.687 751.497C538.541 836.227 474.966 907.308 413.781 967H407.475C469.526 906.873 534.069 834.889 601.262 748.815C1141.47 56.8326 1476.91 -16.5285 1785.02 225.14C1805.79 241.43 1826.45 259.124 1847 278.22V278.221ZM1847 265.623V271.524C1831.35 257.22 1815.64 243.679 1799.89 230.902C1489.72 -20.0392 1153.56 38.3494 604.671 720.002C523.344 820.998 445.872 902.213 372.063 967H365.354C440.126 901.932 518.716 819.801 601.279 717.269C1152.29 32.9872 1490.29 -25.1868 1802.62 227.502C1817.47 239.515 1832.26 252.221 1847 265.622V265.623ZM1847 253.062V258.903C1837.8 250.673 1828.58 242.695 1819.35 234.969C1504.33 -28.1372 1165.51 13.8227 604.644 688.509C505.436 807.849 411.901 899.035 323.905 967H316.615C405.717 898.977 500.582 806.886 601.304 685.723C1164.33 8.42863 1504.99 -33.2605 1822.13 231.62C1830.43 238.558 1838.72 245.705 1847 253.061V253.062ZM1847 240.549V246.342C1845.03 244.618 1843.06 242.896 1841.09 241.196C1520.5 -35.4855 1178.92 -11.5666 604.628 657.021C483.28 798.295 370.485 898.662 265.943 967.001H257.516C363.435 898.966 477.932 797.817 601.321 654.169C1177.85 -17.0209 1521.24 -40.6103 1843.94 237.882C1844.96 238.763 1845.98 239.661 1847 240.548V240.549ZM1847 228.123V233.843C1525.35 -41.4524 1182.93 -25.452 604.601 625.525C454.454 794.533 317.408 903.15 193.018 967H182.692C308.862 904.174 448.26 794.938 601.347 622.622C1180.27 -29.0236 1524.15 -46.4534 1847 228.123V228.123ZM1847 215.667V221.329C1526.01 -47.2405 1183.41 -35.2764 604.576 594.029C410.434 805.099 238.226 918.791 87.1234 967H71.0884C225.075 922.003 401.569 808.301 601.372 591.074C1180.86 -38.9478 1524.88 -52.2559 1847 215.667V215.667ZM1847 203.266V208.91C1526.67 -53.0076 1183.88 -45.1547 604.551 562.535C371.963 806.51 170.852 915.853 0 942.626V937.706C169.951 911.039 370.011 802.242 601.398 559.527C1181.45 -48.9251 1525.61 -58.0662 1847 203.265V203.266ZM1847 190.947V196.543C1527.32 -58.7949 1184.34 -55.0866 604.516 531.048C371.824 766.271 170.754 871.475 0 896.904V892.036C169.871 866.704 369.913 762.01 601.431 527.974C1182.04 -58.9537 1526.33 -63.8613 1847 190.946V190.947ZM1847 178.614V184.235C1527.96 -64.5927 1184.8 -65.0684 604.49 499.553C371.688 726.062 170.663 827.107 0 851.179V846.358C169.791 822.378 369.806 721.815 601.457 496.427C1182.63 -69.0359 1527.06 -69.7263 1847 178.613V178.614ZM1847 166.314V171.911C1528.6 -70.4727 1185.24 -75.0922 604.457 468.066C371.548 685.887 170.569 782.775 0 805.477V800.693C169.715 778.076 369.706 681.642 601.491 464.872C1183.23 -79.175 1527.78 -75.6211 1847 166.315V166.314ZM1847 154.098V159.806C1529.19 -76.2128 1185.6 -85.1175 604.422 436.571C371.41 645.732 170.474 738.464 0 759.785V755.052C169.639 733.811 369.608 641.503 601.526 433.326C1183.89 -89.4283 1528.54 -81.5027 1847 154.098ZM677.743 967C1102.41 271.47 1396.89 104.355 1662.91 259.501C1725.44 295.973 1786.36 350.293 1847 419.749V426.38C1785.6 355.495 1723.97 300.16 1660.72 263.274C1397.36 109.676 1105.09 276.041 682.84 967H677.743Z" fill="url(#paint0_linear_113_2)" fill-opacity="0.04"/>
<defs>
<linearGradient id="paint0_linear_113_2" x1="923.5" y1="0.000488281" x2="923.5" y2="967.001" gradientUnits="userSpaceOnUse">
<stop stop-color="#B3B3B3"/>
<stop offset="1" stop-color="#121C46"/>
</linearGradient>
</defs>
</svg>
