<svg width="24" height="24" viewBox="0 0 24 24" fill="none" xmlns="http://www.w3.org/2000/svg">
<g id="Frame" clip-path="url(#clip0_1027_683)">
<g id="Group">
<path id="Vector" d="M15.311 15.3113C14.4327 16.1896 13.2414 16.683 11.9993 16.683C10.7573 16.683 9.56603 16.1896 8.68773 15.3113C7.80944 14.433 7.31602 13.2418 7.31602 11.9997C7.31602 10.7576 7.80944 9.56639 8.68773 8.6881C9.56603 7.8098 10.7573 7.31638 11.9993 7.31638C13.2414 7.31638 14.4327 7.8098 15.311 8.6881C16.1893 9.56639 16.6827 10.7576 16.6827 11.9997C16.6827 13.2418 16.1893 14.433 15.311 15.3113Z" stroke="#666666" stroke-width="1.3" stroke-linecap="round" stroke-linejoin="round"/>
<path id="Vector_2" d="M0.65 17.3333V6.66667C0.65 5.07095 1.2839 3.54058 2.41224 2.41224C3.54058 1.2839 5.07095 0.65 6.66667 0.65H17.3333C18.9291 0.65 20.4594 1.2839 21.5878 2.41224C22.7161 3.54058 23.35 5.07095 23.35 6.66667V17.3333C23.35 18.9291 22.7161 20.4594 21.5878 21.5878C20.4594 22.7161 18.9291 23.35 17.3333 23.35H6.66667C5.07095 23.35 3.54058 22.7161 2.41224 21.5878C1.2839 20.4594 0.65 18.9291 0.65 17.3333Z" stroke="#666666" stroke-width="1.3"/>
<path id="Vector_3" d="M18.333 5.68121L18.3473 5.66553" stroke="#666666" stroke-width="1.8" stroke-linecap="round" stroke-linejoin="round"/>
</g>
</g>
<defs>
<clipPath id="clip0_1027_683">
<rect width="24" height="24" fill="white"/>
</clipPath>
</defs>
</svg>
