<svg width="114" height="28" viewBox="0 0 114 28" fill="none" xmlns="http://www.w3.org/2000/svg">
<path d="M15.1502 1.40431C17.19 2.39307 18.4082 4.92311 17.8699 7.10419C17.7283 7.71489 17.6433 8.20927 17.6999 8.20927C17.7566 8.20927 18.2099 7.94754 18.7198 7.62764C19.8814 6.90062 22.0345 6.87154 23.3943 7.51132C25.7458 8.67456 26.794 12.1352 25.4908 14.5198C24.6692 15.9739 23.2244 16.9626 21.6662 17.1371L20.3913 17.2825L21.2412 18.0096C22.4311 19.0565 22.9127 20.1616 22.9127 21.9646C22.9127 23.7676 22.2045 25.1053 20.6746 26.1522C18.1532 27.8971 14.7536 26.9083 13.422 24.0293L12.9404 22.9824L12.4305 24.1456C11.4956 26.2976 8.77585 27.5481 6.65107 26.8211C4.38464 26.065 3.08144 24.262 3.08144 21.8773C3.08144 20.2779 3.33641 19.609 4.4413 18.2422L5.14956 17.3698L4.04467 17.1371C1.35328 16.5846 -0.204888 14.4035 0.0217548 11.5827C0.276728 8.55824 2.31652 6.87154 5.46119 7.10419C6.39609 7.19143 7.41599 7.36592 7.72762 7.48224C8.18091 7.68581 8.20924 7.62765 8.06759 6.81338C7.64263 4.89403 8.9175 2.36399 10.7873 1.43339C11.9772 0.822692 13.932 0.822692 15.1502 1.40431Z" fill="white"/>
<path d="M61.3087 19.6574C61.3087 24.0003 57.9019 26.5502 52.0788 26.5502H39.0857V1.4493H51.2469C57.6642 1.4493 60.556 4.15861 60.556 8.38194C60.556 11.1709 58.7734 13.0834 56.1193 13.5216C59.0507 14.1193 61.3087 16.0716 61.3087 19.6574ZM50.9696 16.47H45.6219V21.1316H51.0092C53.3464 21.1316 54.3764 20.1754 54.3764 18.8207C54.3764 17.4661 53.3464 16.47 50.9696 16.47ZM45.6219 6.82807V11.41H50.3754C52.673 11.41 53.5841 10.3741 53.5841 9.17879C53.5841 7.86398 52.673 6.82807 50.3754 6.82807H45.6219Z" fill="white"/>
<path d="M88.9512 13.9998C88.9512 21.7293 83.2469 27.0283 75.9977 27.0283C68.7485 27.0283 63.0442 21.7293 63.0442 13.9998C63.0442 6.27027 68.7485 0.971191 75.9977 0.971191C83.2469 0.971191 88.9512 6.27027 88.9512 13.9998ZM82.0189 13.9998C82.0189 9.73659 79.6817 6.9476 75.9977 6.9476C72.3137 6.9476 69.9765 9.73659 69.9765 13.9998C69.9765 18.2629 72.3137 21.0519 75.9977 21.0519C79.6817 21.0519 82.0189 18.2629 82.0189 13.9998Z" fill="white"/>
<path d="M98.0755 1.4493L107.82 15.3544V1.4493H114V26.5502H108.613L97.8378 11.6889V26.5502H91.6582V1.4493H98.0755Z" fill="white"/>
</svg>
