<svg width="18" height="13" viewBox="0 0 18 13" fill="none" xmlns="http://www.w3.org/2000/svg">
<path d="M1 12.0286C0.71667 12.0286 0.479337 11.9326 0.288004 11.7406C0.0966702 11.5486 0.000670115 11.3112 3.44827e-06 11.0286C-0.000663218 10.7459 0.0953369 10.5086 0.288004 10.3166C0.48067 10.1246 0.718003 10.0286 1 10.0286H17C17.2833 10.0286 17.521 10.1246 17.713 10.3166C17.905 10.5086 18.0007 10.7459 18 11.0286C17.9993 11.3112 17.9033 11.5489 17.712 11.7416C17.5207 11.9342 17.2833 12.0299 17 12.0286H1ZM1 7.02857C0.71667 7.02857 0.479337 6.93257 0.288004 6.74057C0.0966702 6.54857 0.000670115 6.31124 3.44827e-06 6.02857C-0.000663218 5.74591 0.0953369 5.50857 0.288004 5.31657C0.48067 5.12457 0.718003 5.02857 1 5.02857H17C17.2833 5.02857 17.521 5.12457 17.713 5.31657C17.905 5.50857 18.0007 5.74591 18 6.02857C17.9993 6.31124 17.9033 6.54891 17.712 6.74157C17.5207 6.93424 17.2833 7.02991 17 7.02857H1ZM1 2.02857C0.71667 2.02857 0.479337 1.93257 0.288004 1.74057C0.0966702 1.54857 0.000670115 1.31124 3.44827e-06 1.02857C-0.000663218 0.745905 0.0953369 0.508572 0.288004 0.316572C0.48067 0.124572 0.718003 0.0285721 1 0.0285721H17C17.2833 0.0285721 17.521 0.124572 17.713 0.316572C17.905 0.508572 18.0007 0.745905 18 1.02857C17.9993 1.31124 17.9033 1.54891 17.712 1.74157C17.5207 1.93424 17.2833 2.02991 17 2.02857H1Z" fill="white"/>
</svg>
