<svg width="2869" height="1502" viewBox="0 0 2869 1502" fill="none" xmlns="http://www.w3.org/2000/svg">
<path d="M2869 631.696V641.823C2777.51 538.082 2685.64 456.138 2591.48 399.886C2174.26 150.626 1710.79 406.346 1033.22 1502H1025.29C1706.67 399.193 2173.59 142.341 2594.95 394.077C2687.97 449.65 2778.71 530.115 2869 631.696ZM2869 611.395V621.497C2781.63 524.221 2693.88 446.377 2604.07 391.386C2178.41 130.749 1705.2 383.137 1004.73 1502H996.769C1701.12 375.917 2177.79 122.429 2607.59 385.602C2696.24 439.886 2782.84 516.213 2869 611.395ZM2869 591.243V601.174C2786.02 510.481 2702.66 436.957 2617.48 383.471C2183.06 110.705 1699.84 359.084 975.147 1502H967.161C1695.82 351.783 2182.49 102.374 2621.05 377.741C2705.06 430.488 2787.25 502.576 2869 591.243ZM2869 571.057V580.978C2790.71 497.001 2712.05 427.952 2631.79 376.25C2188.29 90.545 1694.79 334.201 944.458 1502H936.403C1690.8 326.763 2187.78 82.1587 2635.44 370.546C2714.49 421.469 2791.95 489.041 2869 571.059V571.057ZM2869 551.054V560.835C2795.73 483.721 2722.11 419.373 2647.12 369.784C2199.38 73.6886 1701.78 302.69 939.436 1460.8C930.083 1475.01 920.893 1488.2 911.607 1502H903.459C913.578 1486.99 923.606 1472.57 933.799 1457.09C1698.92 294.743 2199.43 65.6253 2650.83 364.132C2724.58 412.91 2796.99 475.837 2869 551.054ZM2869 531.074V540.732C2801.12 470.659 2732.91 411.3 2663.57 364.198C2212.29 57.6623 1711.64 269.753 939.41 1411.88C918.4 1442.96 897.57 1472.89 876.877 1502H868.659C890.21 1471.76 911.932 1440.46 933.825 1408.09C1708.9 261.755 2212.45 49.6047 2667.35 358.6C2735.44 404.849 2802.4 462.834 2869 531.072V531.074ZM2869 511.133V520.714C2806.93 457.884 2744.57 403.812 2681.28 359.632C2226.13 41.8787 1722.29 236.349 939.397 1362.96C905.26 1412.09 871.672 1457.89 838.373 1502H829.878C864.126 1456.77 898.695 1409.66 933.839 1359.09C1719.65 228.273 2226.41 33.8005 2685.15 354.061C2747.14 397.343 2808.23 450.07 2869 511.133ZM2869 491.283V500.786C2813.22 445.43 2757.18 396.964 2700.43 356.217C2241.02 26.3694 1733.84 202.4 939.368 1314.04C890.982 1381.75 843.522 1444.01 796.825 1502H788.014C835.772 1442.92 884.322 1379.41 933.862 1310.09C1731.31 194.269 2241.41 18.2997 2704.37 350.697C2759.8 390.496 2814.54 437.627 2869 491.282V491.283ZM2869 471.518V480.905C2820.05 433.296 2770.88 390.863 2721.2 354.151C2257.08 11.2105 1746.39 167.834 939.344 1265.11C875.055 1352.52 812.316 1431.11 751.023 1502H742.125C804.492 1430.18 868.4 1350.14 933.889 1261.1C1744 159.669 2257.58 3.15976 2725.2 348.683C2773.54 384.407 2821.38 425.538 2869 471.517V471.518ZM2869 451.82V461.125C2827.5 421.578 2785.77 385.753 2743.82 353.651C2274.47 -3.51576 1760.11 132.581 939.304 1216.19C856.985 1324.86 777.248 1419.35 699.857 1502H690.574C769.163 1418.52 850.218 1322.62 933.931 1212.1C1757.86 124.377 2275.09 -11.5275 2747.89 348.265C2788.54 379.2 2828.91 413.718 2869 451.819V451.82ZM2869 432.148V441.395C2835.67 410.288 2802.19 381.501 2768.57 355.033C2293.37 -17.6712 1775.19 96.5374 939.278 1167.27C836.532 1298.87 737.779 1409.28 642.738 1502H632.943C729.329 1408.61 829.585 1296.8 933.959 1163.1C1773.07 88.2748 2294.13 -25.6738 2772.73 349.7C2804.99 375.003 2837.08 402.485 2869 432.147V432.148ZM2869 412.58V421.746C2844.68 399.528 2820.29 378.496 2795.83 358.65C2314.03 -31.1267 1791.86 59.5658 939.253 1118.35C812.925 1275.22 692.586 1401.37 577.937 1502H567.516C683.661 1400.93 805.736 1273.36 933.984 1114.1C1789.88 51.2369 2314.91 -39.1224 2800.06 353.369C2823.12 372.027 2846.1 391.764 2869 412.579V412.58ZM2869 393.069V402.142C2854.71 389.359 2840.39 376.967 2826.05 364.966C2336.73 -43.7051 1810.41 21.4694 939.212 1069.43C785.108 1254.8 639.818 1396.43 503.131 1502H491.808C630.212 1396.34 777.568 1253.3 934.023 1065.1C1808.59 13.0911 2337.74 -51.6629 2830.36 359.765C2843.27 370.541 2856.14 381.642 2869 393.068V393.069ZM2869 373.634V382.631C2865.94 379.954 2862.88 377.28 2859.82 374.639C2361.83 -55.1188 1831.25 -17.9666 939.186 1020.52C750.693 1239.96 575.486 1395.85 413.096 1502H400.007C564.534 1396.33 742.386 1239.21 934.05 1016.09C1829.58 -26.4385 2362.99 -63.0789 2864.24 369.491C2865.83 370.859 2867.41 372.254 2869 373.633V373.634ZM2869 354.334V363.218C2369.37 -64.387 1837.48 -39.5343 939.145 971.601C705.918 1234.11 493.039 1402.82 299.821 1502H283.781C479.764 1404.41 696.295 1234.74 934.09 967.092C1833.35 -45.0819 2367.51 -72.1548 2869 354.332V354.334ZM2869 334.986V343.781C2370.4 -73.3774 1838.22 -54.7941 939.106 922.679C637.54 1250.53 370.044 1427.12 135.331 1502H110.424C349.616 1432.11 623.769 1255.5 934.129 918.089C1834.27 -60.4967 2368.65 -81.1676 2869 334.985V334.986ZM2869 315.724V324.491C2371.42 -82.3351 1838.95 -70.1377 939.067 873.761C577.78 1252.72 265.389 1422.55 0 1464.14V1456.5C263.99 1415.08 574.75 1246.09 934.169 869.088C1835.19 -75.994 2369.78 -90.1925 2869 315.722V315.724ZM2869 296.588V305.281C2372.43 -91.3244 1839.68 -85.5645 939.012 824.854C577.565 1190.22 265.238 1353.62 0 1393.12V1385.56C263.866 1346.21 574.596 1183.6 934.221 820.078C1836.1 -91.5711 2370.9 -99.1939 2869 296.587V296.588ZM2869 277.433V286.164C2373.43 -100.33 1840.38 -101.069 938.973 775.934C577.354 1127.76 265.096 1284.71 0 1322.1V1314.61C263.742 1277.36 574.431 1121.16 934.261 771.078C1837.02 -107.231 2372.03 -108.304 2869 277.431V277.433ZM2869 258.328V267.021C2374.43 -109.463 1841.07 -116.638 938.921 727.027C577.136 1065.36 264.949 1215.85 0 1251.11V1243.68C263.623 1208.55 574.276 1058.76 934.314 722.066C1837.94 -122.98 2373.15 -117.46 2869 258.329V258.328ZM2869 239.353V248.219C2375.34 -118.379 1841.63 -132.21 938.867 678.106C576.922 1002.99 264.803 1147.02 0 1180.14V1172.79C263.505 1139.8 574.122 996.419 934.368 673.066C1838.98 -138.906 2374.33 -126.595 2869 239.353ZM1052.76 1502C1712.41 421.662 2169.82 162.089 2583.04 403.071C2680.18 459.722 2774.81 544.095 2869 651.978V662.277C2773.63 552.175 2677.89 466.225 2579.65 408.931C2170.56 170.355 1716.57 428.762 1060.68 1502H1052.76Z" fill="url(#paint0_linear_116_4)" fill-opacity="0.04"/>
<defs>
<linearGradient id="paint0_linear_116_4" x1="1434.5" y1="0" x2="1434.5" y2="1502" gradientUnits="userSpaceOnUse">
<stop stop-color="#B3B3B3"/>
<stop offset="1" stop-color="#121C46"/>
</linearGradient>
</defs>
</svg>
