<svg xmlns="http://www.w3.org/2000/svg" width="24" height="24" viewBox="0 0 24 24" fill="none">
  <g clip-path="url(#clip0_2626_286)">
    <path d="M11.9994 7.31683C13.2413 7.31683 14.4326 7.80983 15.3109 8.68792C16.1891 9.56614 16.6829 10.7575 16.683 11.9994C16.683 13.2415 16.1892 14.4327 15.3109 15.311C14.4326 16.1893 13.2415 16.683 11.9994 16.683C10.7574 16.683 9.56608 16.1892 8.68787 15.311C7.80977 14.4327 7.31677 13.2414 7.31677 11.9994C7.31686 10.7575 7.80965 9.56614 8.68787 8.68792C9.56608 7.8097 10.7574 7.31692 11.9994 7.31683Z" stroke="black" stroke-width="1.3" stroke-linecap="round" stroke-linejoin="round"/>
    <path d="M6.66699 0.650391H17.333C18.9287 0.650391 20.4595 1.28377 21.5879 2.41211C22.7162 3.54045 23.3496 5.07127 23.3496 6.66699V17.333C23.3496 18.9287 22.7162 20.4595 21.5879 21.5879C20.4595 22.7162 18.9287 23.3496 17.333 23.3496H6.66699C5.07127 23.3496 3.54045 22.7162 2.41211 21.5879C1.28377 20.4595 0.650391 18.9287 0.650391 17.333V6.66699C0.650391 5.07127 1.28377 3.54045 2.41211 2.41211C3.54045 1.28377 5.07127 0.650391 6.66699 0.650391Z" stroke="black" stroke-width="1.3"/>
    <path d="M18.3328 5.68121L18.347 5.66553" stroke="black" stroke-width="1.8" stroke-linecap="round" stroke-linejoin="round"/>
  </g>
  <defs>
    <clipPath id="clip0_2626_286">
      <rect width="24" height="24" fill="white"/>
    </clipPath>
  </defs>
</svg>