<svg width="114" height="27" viewBox="0 0 114 27" fill="none" xmlns="http://www.w3.org/2000/svg">
<path d="M15.1502 0.432632C17.19 1.42138 18.4082 3.95143 17.8699 6.13251C17.7283 6.74321 17.6433 7.23759 17.6999 7.23759C17.7566 7.23759 18.2099 6.97585 18.7198 6.65596C19.8814 5.92894 22.0345 5.89986 23.3943 6.53964C25.7458 7.70288 26.794 11.1635 25.4908 13.5482C24.6692 15.0022 23.2244 15.991 21.6662 16.1655L20.3913 16.3109L21.2412 17.0379C22.4311 18.0848 22.9127 19.1899 22.9127 20.9929C22.9127 22.7959 22.2045 24.1336 20.6746 25.1806C18.1532 26.9254 14.7536 25.9367 13.422 23.0576L12.9404 22.0107L12.4305 23.174C11.4956 25.326 8.77585 26.5764 6.65107 25.8494C4.38464 25.0933 3.08144 23.2903 3.08144 20.9057C3.08144 19.3062 3.33641 18.6373 4.4413 17.2705L5.14956 16.3981L4.04467 16.1655C1.35328 15.6129 -0.204888 13.4318 0.0217548 10.611C0.276728 7.58656 2.31652 5.89986 5.46119 6.13251C6.39609 6.21975 7.41599 6.39424 7.72762 6.51056C8.18091 6.71413 8.20924 6.65597 8.06759 5.8417C7.64263 3.92235 8.9175 1.39231 10.7873 0.461714C11.9772 -0.148987 13.932 -0.148989 15.1502 0.432632Z" fill="white"/>
<path d="M61.3087 18.6862C61.3087 23.0291 57.9019 25.579 52.0788 25.579H39.0857V0.478111H51.2469C57.6642 0.478111 60.556 3.18742 60.556 7.41075C60.556 10.1997 58.7734 12.1122 56.1193 12.5505C59.0507 13.1481 61.3087 15.1004 61.3087 18.6862ZM50.9696 15.4988H45.6219V20.1604H51.0092C53.3464 20.1604 54.3764 19.2042 54.3764 17.8495C54.3764 16.4949 53.3464 15.4988 50.9696 15.4988ZM45.6219 5.85688V10.4388H50.3754C52.673 10.4388 53.5841 9.40288 53.5841 8.2076C53.5841 6.89279 52.673 5.85688 50.3754 5.85688H45.6219Z" fill="white"/>
<path d="M88.9512 13.0286C88.9512 20.7581 83.2469 26.0571 75.9977 26.0571C68.7485 26.0571 63.0442 20.7581 63.0442 13.0286C63.0442 5.29908 68.7485 0 75.9977 0C83.2469 0 88.9512 5.29908 88.9512 13.0286ZM82.0189 13.0286C82.0189 8.7654 79.6817 5.97641 75.9977 5.97641C72.3137 5.97641 69.9765 8.7654 69.9765 13.0286C69.9765 17.2917 72.3137 20.0807 75.9977 20.0807C79.6817 20.0807 82.0189 17.2917 82.0189 13.0286Z" fill="white"/>
<path d="M98.0755 0.478111L107.82 14.3832V0.478111H114V25.579H108.613L97.8378 10.7177V25.579H91.6582V0.478111H98.0755Z" fill="white"/>
</svg>
